<?xml version="1.0" encoding="UTF-8"?>
<!DOCTYPE svg PUBLIC "-//W3C//DTD SVG 1.1//EN" "http://www.w3.org/Graphics/SVG/1.1/DTD/svg11.dtd">
<!-- Creator: CorelDRAW 2018 (64-Bit) -->
<svg xmlns="http://www.w3.org/2000/svg" xml:space="preserve" width="225px" height="225px" version="1.1" style="shape-rendering:geometricPrecision; text-rendering:geometricPrecision; image-rendering:optimizeQuality; fill-rule:evenodd; clip-rule:evenodd"
viewBox="0 0 225 225"
 xmlns:xlink="http://www.w3.org/1999/xlink">
 <defs>
  <style type="text/css">
   <![CDATA[
    .str0 {stroke:black;stroke-width:11;stroke-miterlimit:22.9256}
    .fil0 {fill:none}
   ]]>
  </style>
 </defs>
 <g id="Слой_x0020_1">
  <metadata id="CorelCorpID_0Corel-Layer"/>
  <path class="fil0 str0" d="M112 75c22,0 40,18 40,40 0,22 -18,40 -40,40 -22,0 -40,-18 -40,-40 0,-22 18,-40 40,-40z"/>
  <path class="fil0 str0" d="M132 35l0 -19c0,-5 -3,-9 -8,-9l-22 0c-4,0 -8,4 -8,9l0 19c0,1 0,1 0,2l-20 10m57 -12c0,1 0,1 0,2l0 7"/>
  <path class="fil0 str0" d="M72 45l-13 -13c-4,-4 -9,-4 -12,-1l-15 15c-3,3 -3,8 1,12l13 13c0,0 1,1 1,1l-7 21m32 -48c0,0 1,1 1,1l4 5"/>
  <path class="fil0 str0" d="M37 97l-19 0c-5,0 -9,3 -9,8l0 22c0,4 4,8 9,8l19 0c1,0 1,0 2,0l10 20m-12 -57c1,0 1,0 2,0l7 0"/>
  <path class="fil0 str0" d="M45 155l-13 13c-4,4 -4,9 -1,12l15 15c3,3 8,3 12,-1l13 -13c0,0 1,-1 1,-1l21 7m-48 -32c0,0 1,-1 1,-1l5 -4"/>
  <path class="fil0 str0" d="M92 190l0 19c0,5 3,9 8,9l22 0c4,0 8,-4 8,-9l0 -19c0,-1 0,-1 0,-2l20 -10m-57 12c0,-1 0,-1 0,-2l0 -7"/>
  <path class="fil0 str0" d="M152 181l13 13c4,4 9,4 12,1l15 -15c3,-3 3,-8 -1,-12l-13 -13c0,0 -1,-1 -1,-1l7 -21m-32 48c0,0 -1,-1 -1,-1l-4 -5"/>
  <path class="fil0 str0" d="M189 136l19 0c5,0 9,-3 9,-8l0 -22c0,-4 -4,-8 -9,-8l-19 0c-1,0 -1,0 -2,0l-10 -20m12 57c-1,0 -1,0 -2,0l-7 0"/>
  <path class="fil0 str0" d="M178 72l13 -13c4,-4 4,-9 1,-12l-15 -15c-3,-3 -8,-3 -12,1l-13 13c0,0 -1,1 -1,1l-21 -7m48 32c0,0 -1,1 -1,1l-5 4"/>
 </g>
</svg>
